<svg width="454" height="56" viewBox="0 0 454 56" fill="none" xmlns="http://www.w3.org/2000/svg">
<circle cx="28" cy="28" r="28" fill="#D9D9D9"/>
<path d="M73 37V34H70V25H73V22H91V25H76V34H91V37H73ZM97 37V34H94V25H97V22H112V25H115V34H112V37H97ZM100 34H109V25H100V34ZM121 37V34H127V19H124V16H133V34H139V37H121ZM145 37V34H142V25H145V22H160V25H163V34H160V37H145ZM148 34H157V25H148V34ZM175 25H178V28H175V37H169V22H175V25ZM187 22V25H178V22H187ZM214 40V22H232V25H235V31H232V34H220V40H214ZM220 31H229V25H220V31ZM247 25H250V28H247V37H241V22H247V25ZM259 22V25H250V22H259ZM265 37V34H262V25H265V22H280V25H283V31H268V34H280V37H265ZM268 28H277V25H268V28ZM289 37V34H286V25H289V22H301V16H307V37H289ZM292 34H301V25H292V34ZM319 19V16H325V19H319ZM313 37V34H319V25H316V22H325V34H331V37H313ZM337 37V34H334V25H337V22H355V25H340V34H355V37H337ZM367 37V25H361V22H367V16H373V22H379V25H373V37H367ZM391 19V16H397V19H391ZM385 37V34H391V25H388V22H397V34H403V37H385ZM409 37V34H406V25H409V22H424V25H427V34H424V37H409ZM412 34H421V25H412V34ZM430 37V22H448V25H451V37H445V25H436V37H430Z" fill="white"/>
<circle cx="28" cy="28" r="21" fill="#FF0000"/>
</svg>
